<svg width="53" height="59" viewBox="0 0 53 59" fill="none" xmlns="http://www.w3.org/2000/svg"><path d="M47.744 15.52H41.76A9.72 9.72 0 0 0 26.08 4.052 9.721 9.721 0 0 0 10.399 15.52H4.416a4.34 4.34 0 0 0-4.333 4.333v8.665a4.34 4.34 0 0 0 4.333 4.333v21.664a4.34 4.34 0 0 0 4.333 4.333H43.41a4.34 4.34 0 0 0 4.333-4.333V32.851a4.34 4.34 0 0 0 4.333-4.333v-8.665a4.34 4.34 0 0 0-4.333-4.333m-19.498-5.416a5.416 5.416 0 1 1 5.416 5.416h-5.416zm-9.748-5.416a5.423 5.423 0 0 1 5.415 5.416v5.416h-5.416a5.416 5.416 0 1 1 0-10.832M4.415 19.853h19.498v8.665H4.415zM8.749 32.85h15.164v21.664H8.75zm34.665 21.664H28.246V32.851h15.165zM28.246 28.518v-8.665h19.498l.002 8.665z" fill="#fff"/></svg>